<svg id="Layer_35" enable-background="new 0 0 64 64" height="512" viewBox="0 0 64 64" width="512" xmlns="http://www.w3.org/2000/svg"><path d="m12 21c4.962 0 9-4.037 9-9s-4.038-9-9-9-9 4.037-9 9 4.038 9 9 9zm5-10h2v2h-2zm-5 2c-1.654 0-3-1.346-3-3v-3h2v-2h2v2.184c1.161.414 2 1.514 2 2.816h-2c0-.552-.449-1-1-1h-1v1c0 .552.449 1 1 1 1.654 0 3 1.346 3 3v3h-2v2h-2v-2.184c-1.161-.414-2-1.514-2-2.816h2c0 .552.449 1 1 1h1v-1c0-.552-.449-1-1-1zm-7-2h2v2h-2z"/><path d="m43 32c0-7.168-5.832-13-13-13s-13 5.832-13 13 5.832 13 13 13 13-5.832 13-13zm-24 0c0-6.065 4.935-11 11-11s11 4.935 11 11-4.935 11-11 11-11-4.935-11-11z"/><path d="m3.95 53.465c-.613.612-.95 1.426-.95 2.293 0 1.788 1.455 3.242 3.243 3.242.866 0 1.68-.337 2.293-.95l10.05-10.05-4.586-4.586z"/><path d="m18.643 41.771-1.729 1.729 1.586 1.586 1.729-1.729c-.567-.489-1.097-1.019-1.586-1.586z"/><path d="m39 32c0-4.963-4.038-9-9-9s-9 4.037-9 9 4.038 9 9 9 9-4.037 9-9zm-4-1h2v2h-2zm-10 2h-2v-2h2zm2 1h2c0 .552.449 1 1 1h1v-1c0-.552-.449-1-1-1-1.654 0-3-1.346-3-3v-3h2v-2h2v2.184c1.161.414 2 1.514 2 2.816h-2c0-.552-.449-1-1-1h-1v1c0 .552.449 1 1 1 1.654 0 3 1.346 3 3v3h-2v2h-2v-2.184c-1.161-.414-2-1.514-2-2.816z"/><path d="m44.698 35c-.872 4.277-3.576 7.888-7.246 10h15.548v-10z"/><path d="m40 5h10c.551 0 1-.448 1-1v-1h-12v1c0 .552.449 1 1 1z"/><path d="m29 58c0 1.654 1.346 3 3 3h26c1.654 0 3-1.346 3-3v-3h-32zm12-1h8v2h-8z"/><path d="m58 3h-5v1c0 1.654-1.346 3-3 3h-10c-1.654 0-3-1.346-3-3v-1h-5c-1.654 0-3 1.346-3 3v11.051c.332-.022.662-.051 1-.051s.668.029 1 .051v-6.051c0-1.103.897-2 2-2h24c1.103 0 2 .897 2 2v38c0 1.103-.897 2-2 2h-24c-1.103 0-2-.897-2-2v-2.051c-.332.022-.662.051-1 .051s-.668-.029-1-.051v6.051h32v-47c0-1.654-1.346-3-3-3z"/><path d="m33 46.698v2.302h24v-38h-24v6.302c6.838 1.394 12 7.454 12 14.698 0 .338-.029.668-.051 1h10.051v14h-20v-.875c-.65.231-1.313.433-2 .573zm22-19.698h-8v-2h8zm0-4h-8v-2h8zm-12-10h12v2h-12zm-6 2h-2v-2h2zm4 0h-2v-2h2zm2 4v-2h12v2zm4 12v-2h8v2z"/></svg>